<svg width="48" height="34" viewBox="0 0 48 34" fill="none" xmlns="http://www.w3.org/2000/svg">
<rect y="22.2143" width="45.9643" height="9.42857" rx="4" fill="#152C5B"/>
<path d="M38.8929 4.63689C39.5158 4.63689 40.0208 5.14191 40.0208 5.76487C40.0208 6.38784 39.5158 6.89286 38.8929 6.89286C38.2699 6.89286 37.7649 6.38784 37.7649 5.76487C37.7649 5.14191 38.2699 4.63689 38.8929 4.63689Z" fill="#152C5B"/>
<path d="M41.25 2.48872V2.48872C42.8944 4.13312 42.8944 6.79921 41.25 8.44361V8.44361" stroke="#152C5B" stroke-linecap="round"/>
<path d="M44.2274 1V1C46.7321 3.64383 46.7321 7.78474 44.2274 10.4286V10.4286" stroke="#152C5B" stroke-linecap="round"/>
<path d="M36.9079 8.93985V8.93985C35.2635 7.29545 35.2635 4.62936 36.9079 2.98496V2.98496" stroke="#152C5B" stroke-linecap="round"/>
<path d="M33.9305 10.4286V10.4286C31.4258 7.78474 31.4258 3.64383 33.9305 1V1" stroke="#152C5B" stroke-linecap="round"/>
<path d="M38.8929 5.71429V26.9286" stroke="#152C5B"/>
<circle cx="4.71429" cy="26.9286" r="2.35714" fill="#FF498B"/>
<circle cx="11.7857" cy="26.9286" r="2.35714" fill="#FF498B"/>
<rect x="5.89286" y="30.4643" width="5.89286" height="3.53571" fill="#152C5B"/>
<rect x="35.3571" y="30.4643" width="5.89286" height="3.53571" fill="#152C5B"/>
</svg>
