<svg width="47" height="44" viewBox="0 0 47 44" fill="none" xmlns="http://www.w3.org/2000/svg">
<path d="M9 18V34C9 35.6569 10.3431 37 12 37H35C36.6569 37 38 35.6569 38 34V18" stroke="#152C5B" stroke-width="5"/>
<ellipse cx="7" cy="16" rx="5" ry="4" transform="rotate(39.7157 7 16)" fill="#152C5B"/>
<ellipse cx="40.2718" cy="16.402" rx="4" ry="5" transform="rotate(39.7157 40.2718 16.402)" fill="#152C5B"/>
<path d="M12 38.5L10 43.5" stroke="#152C5B"/>
<path d="M37 43L35 38" stroke="#152C5B"/>
<rect x="13" y="26" width="21" height="7" fill="#FF498B"/>
<path d="M12.5 16.4105V22C12.5 23.1046 13.3954 24 14.5 24H32.5C33.6046 24 34.5 23.1046 34.5 22V16.6409C34.5 16.2241 34.6302 15.8177 34.8725 15.4785L36.8063 12.7712C36.9345 12.5917 37.0917 12.4345 37.2712 12.3063L39.6625 10.5982C40.1881 10.2228 40.5 9.61667 40.5 8.97076V2C40.5 0.895431 39.6046 0 38.5 0H8.5C7.39543 0 6.5 0.89543 6.5 2V9.20025C6.5 9.99063 6.96547 10.7069 7.68772 11.0279L10.283 12.1814C10.7439 12.3862 11.1104 12.7576 11.3091 13.2211L12.3383 15.6227C12.445 15.8716 12.5 16.1397 12.5 16.4105Z" fill="#FF498B"/>
</svg>
