<svg width="31" height="48" viewBox="0 0 31 48" fill="none" xmlns="http://www.w3.org/2000/svg">
<circle cx="3.92" cy="28.2" r="2.8" fill="#FF498B"/>
<path d="M16.8 28.2C16.8 29.7464 15.5464 31 14 31C12.4536 31 11.2 29.7464 11.2 28.2C11.2 26.6536 12.4536 25.4 14 25.4C15.5464 25.4 16.8 26.6536 16.8 28.2Z" fill="#FF498B"/>
<circle cx="9.52" cy="34.92" r="2.8" fill="#FF498B"/>
<path d="M19.04 24.28L0 24.28V19.24C0 13.9822 4.26225 9.72 9.52 9.72V9.72C14.7778 9.72 19.04 13.9822 19.04 19.24V24.28Z" fill="#152C5B"/>
<path d="M10.08 10.28V10.28C10.08 6.25937 13.3394 3 17.36 3H20C24.4183 3 28 6.58172 28 11V47.8" stroke="#152C5B" stroke-width="5"/>
</svg>
