<svg width="43" height="30" viewBox="0 0 43 30" fill="none" xmlns="http://www.w3.org/2000/svg">
<rect y="9" width="43" height="5" fill="#152C5B"/>
<path d="M3.5 29C3.5 29.2761 3.72386 29.5 4 29.5C4.27614 29.5 4.5 29.2761 4.5 29H3.5ZM3.5 14L3.5 29H4.5L4.5 14H3.5Z" fill="#FF498B"/>
<path d="M38.5 29C38.5 29.2761 38.7239 29.5 39 29.5C39.2761 29.5 39.5 29.2761 39.5 29H38.5ZM38.5 14V29H39.5V14H38.5Z" fill="#FF498B"/>
<path d="M9.5 23C9.5 23.2761 9.72386 23.5 10 23.5C10.2761 23.5 10.5 23.2761 10.5 23H9.5ZM9.5 14V23H10.5V14H9.5Z" fill="#FF498B"/>
<path d="M32.5 23C32.5 23.2761 32.7239 23.5 33 23.5C33.2761 23.5 33.5 23.2761 33.5 23H32.5ZM32.5 14V23H33.5V14H32.5Z" fill="#FF498B"/>
<path d="M8.6 0H34.4L43 8H0L8.6 0Z" fill="#152C5B"/>
</svg>
